<svg width="173" height="40" viewBox="0 0 173 40" fill="none" xmlns="http://www.w3.org/2000/svg">
<path d="M34.1422 5.85781C30.3647 2.08031 25.3422 0 20 0C14.6578 0 9.63531 2.08031 5.85781 5.85781C2.08031 9.63531 0 14.6578 0 20C0 25.3422 2.08039 30.3646 5.85781 34.1422C9.63523 37.9198 14.6578 40 20 40C25.3422 40 30.3647 37.9197 34.1422 34.1422C37.9197 30.3647 40 25.3422 40 20C40 14.6578 37.9196 9.63539 34.1422 5.85781Z" fill="#4CAF50"/>
<g clip-path="url(#clip0_35212_417)">
<path d="M20.5714 8V33.1429" stroke="white" stroke-width="2" stroke-linecap="round" stroke-linejoin="round"/>
<path d="M26.2857 12.5714H17.7143C16.6534 12.5714 15.636 12.9929 14.8859 13.743C14.1357 14.4931 13.7143 15.5106 13.7143 16.5714C13.7143 17.6323 14.1357 18.6497 14.8859 19.3999C15.636 20.15 16.6534 20.5714 17.7143 20.5714H23.4286C24.4894 20.5714 25.5069 20.9929 26.257 21.743C27.0072 22.4932 27.4286 23.5106 27.4286 24.5714C27.4286 25.6323 27.0072 26.6497 26.257 27.3999C25.5069 28.15 24.4894 28.5714 23.4286 28.5714H13.7143" stroke="white" stroke-width="2" stroke-linecap="round" stroke-linejoin="round"/>
</g>
<path d="M49.5275 21.6C49.5275 19.952 49.8955 18.48 50.6315 17.184C51.3835 15.872 52.3995 14.856 53.6795 14.136C54.9755 13.4 56.4235 13.032 58.0235 13.032C59.8955 13.032 61.5355 13.512 62.9435 14.472C64.3515 15.432 65.3355 16.76 65.8955 18.456H62.0315C61.6475 17.656 61.1035 17.056 60.3995 16.656C59.7115 16.256 58.9115 16.056 57.9995 16.056C57.0235 16.056 56.1515 16.288 55.3835 16.752C54.6315 17.2 54.0395 17.84 53.6075 18.672C53.1915 19.504 52.9835 20.48 52.9835 21.6C52.9835 22.704 53.1915 23.68 53.6075 24.528C54.0395 25.36 54.6315 26.008 55.3835 26.472C56.1515 26.92 57.0235 27.144 57.9995 27.144C58.9115 27.144 59.7115 26.944 60.3995 26.544C61.1035 26.128 61.6475 25.52 62.0315 24.72H65.8955C65.3355 26.432 64.3515 27.768 62.9435 28.728C61.5515 29.672 59.9115 30.144 58.0235 30.144C56.4235 30.144 54.9755 29.784 53.6795 29.064C52.3995 28.328 51.3835 27.312 50.6315 26.016C49.8955 24.72 49.5275 23.248 49.5275 21.6ZM67.9014 23.304C67.9014 21.96 68.1654 20.768 68.6934 19.728C69.2374 18.688 69.9654 17.888 70.8774 17.328C71.8054 16.768 72.8374 16.488 73.9734 16.488C74.9654 16.488 75.8294 16.688 76.5654 17.088C77.3174 17.488 77.9174 17.992 78.3654 18.6V16.704H81.7494V30H78.3654V28.056C77.9334 28.68 77.3334 29.2 76.5654 29.616C75.8134 30.016 74.9414 30.216 73.9494 30.216C72.8294 30.216 71.8054 29.928 70.8774 29.352C69.9654 28.776 69.2374 27.968 68.6934 26.928C68.1654 25.872 67.9014 24.664 67.9014 23.304ZM78.3654 23.352C78.3654 22.536 78.2054 21.84 77.8854 21.264C77.5654 20.672 77.1334 20.224 76.5894 19.92C76.0454 19.6 75.4614 19.44 74.8374 19.44C74.2134 19.44 73.6374 19.592 73.1094 19.896C72.5814 20.2 72.1494 20.648 71.8134 21.24C71.4934 21.816 71.3334 22.504 71.3334 23.304C71.3334 24.104 71.4934 24.808 71.8134 25.416C72.1494 26.008 72.5814 26.464 73.1094 26.784C73.6534 27.104 74.2294 27.264 74.8374 27.264C75.4614 27.264 76.0454 27.112 76.5894 26.808C77.1334 26.488 77.5654 26.04 77.8854 25.464C78.2054 24.872 78.3654 24.168 78.3654 23.352ZM90.119 30.216C89.031 30.216 88.055 30.024 87.191 29.64C86.327 29.24 85.639 28.704 85.127 28.032C84.631 27.36 84.359 26.616 84.311 25.8H87.695C87.759 26.312 88.007 26.736 88.439 27.072C88.887 27.408 89.439 27.576 90.095 27.576C90.735 27.576 91.231 27.448 91.583 27.192C91.951 26.936 92.135 26.608 92.135 26.208C92.135 25.776 91.911 25.456 91.463 25.248C91.031 25.024 90.335 24.784 89.375 24.528C88.383 24.288 87.567 24.04 86.927 23.784C86.303 23.528 85.759 23.136 85.295 22.608C84.847 22.08 84.623 21.368 84.623 20.472C84.623 19.736 84.831 19.064 85.247 18.456C85.679 17.848 86.287 17.368 87.071 17.016C87.871 16.664 88.807 16.488 89.879 16.488C91.463 16.488 92.727 16.888 93.671 17.688C94.615 18.472 95.135 19.536 95.231 20.88H92.015C91.967 20.352 91.743 19.936 91.343 19.632C90.959 19.312 90.439 19.152 89.783 19.152C89.175 19.152 88.703 19.264 88.367 19.488C88.047 19.712 87.887 20.024 87.887 20.424C87.887 20.872 88.111 21.216 88.559 21.456C89.007 21.68 89.703 21.912 90.647 22.152C91.607 22.392 92.399 22.64 93.023 22.896C93.647 23.152 94.183 23.552 94.631 24.096C95.095 24.624 95.335 25.328 95.351 26.208C95.351 26.976 95.135 27.664 94.703 28.272C94.287 28.88 93.679 29.36 92.879 29.712C92.095 30.048 91.175 30.216 90.119 30.216ZM105.597 16.512C106.605 16.512 107.501 16.736 108.285 17.184C109.069 17.616 109.677 18.264 110.109 19.128C110.557 19.976 110.781 21 110.781 22.2V30H107.421V22.656C107.421 21.6 107.157 20.792 106.629 20.232C106.101 19.656 105.381 19.368 104.469 19.368C103.541 19.368 102.805 19.656 102.261 20.232C101.733 20.792 101.469 21.6 101.469 22.656V30H98.1091V12.24H101.469V18.36C101.901 17.784 102.477 17.336 103.197 17.016C103.917 16.68 104.717 16.512 105.597 16.512ZM130.039 13.248V15.96H123.055V20.256H128.407V22.92H123.055V30H119.695V13.248H130.039ZM135.782 12.24V30H132.422V12.24H135.782ZM145.005 30.216C143.725 30.216 142.573 29.936 141.549 29.376C140.525 28.8 139.717 27.992 139.125 26.952C138.549 25.912 138.261 24.712 138.261 23.352C138.261 21.992 138.557 20.792 139.149 19.752C139.757 18.712 140.581 17.912 141.621 17.352C142.661 16.776 143.821 16.488 145.101 16.488C146.381 16.488 147.541 16.776 148.581 17.352C149.621 17.912 150.437 18.712 151.029 19.752C151.637 20.792 151.941 21.992 151.941 23.352C151.941 24.712 151.629 25.912 151.005 26.952C150.397 27.992 149.565 28.8 148.509 29.376C147.469 29.936 146.301 30.216 145.005 30.216ZM145.005 27.288C145.613 27.288 146.181 27.144 146.709 26.856C147.253 26.552 147.685 26.104 148.005 25.512C148.325 24.92 148.485 24.2 148.485 23.352C148.485 22.088 148.149 21.12 147.477 20.448C146.821 19.76 146.013 19.416 145.053 19.416C144.093 19.416 143.285 19.76 142.629 20.448C141.989 21.12 141.669 22.088 141.669 23.352C141.669 24.616 141.981 25.592 142.605 26.28C143.245 26.952 144.045 27.288 145.005 27.288ZM172.838 16.704L168.95 30H165.326L162.902 20.712L160.478 30H156.83L152.918 16.704H156.326L158.678 26.832L161.222 16.704H164.774L167.27 26.808L169.622 16.704H172.838Z" fill="white"/>
<defs>
<clipPath id="clip0_35212_417">
<rect width="27.4286" height="27.4286" fill="white" transform="translate(6.85715 6.85714)"/>
</clipPath>
</defs>
</svg>
